<svg width="115" height="114" viewBox="0 0 115 114" fill="none" xmlns="http://www.w3.org/2000/svg">
<g id="Wpp">
<g id="Rectangle 120" filter="url(#filter0_d_90_927)">
<path d="M14.5447 57.2339C14.5447 33.4856 34.0479 14.2339 57.7961 14.2339C81.2682 14.2339 100.545 33.2618 100.545 56.7339C100.545 80.206 81.5168 99.2339 58.0447 99.2339H14.5447V57.2339Z" fill="#83AC6E"/>
</g>
<path id="Vector" fill-rule="evenodd" clip-rule="evenodd" d="M75.2149 39.1663C70.5266 34.527 64.2915 31.971 57.649 31.9683C43.9614 31.9683 32.8217 42.9781 32.8162 56.5101C32.8144 60.8359 33.9577 65.0586 36.1309 68.7806L32.6079 81.4989L45.7721 78.0858C49.3994 80.0414 53.483 81.072 57.6389 81.0732H57.6493C71.3353 81.0732 82.4762 70.0624 82.4814 56.5298C82.4842 49.9715 79.9036 43.8052 75.2149 39.1663ZM57.649 76.9282H57.6404C53.937 76.9267 50.3048 75.943 47.1354 74.0847L46.382 73.6424L38.5702 75.6679L40.6553 68.14L40.1644 67.3682C38.0982 64.1202 37.0072 60.3661 37.009 56.5117C37.0133 45.2642 46.2725 36.1135 57.6572 36.1135C63.1702 36.1154 68.3525 38.24 72.2492 42.096C76.146 45.9519 78.2907 51.0773 78.2889 56.5283C78.284 67.7767 69.0254 76.9282 57.649 76.9282ZM68.9703 61.6497C68.35 61.3426 65.2993 59.8594 64.7304 59.6545C64.1621 59.4498 63.748 59.3479 63.3347 59.9616C62.9209 60.5753 61.732 61.9569 61.3698 62.3659C61.0077 62.7752 60.6462 62.8266 60.0256 62.5195C59.4049 62.2126 57.4058 61.5648 55.0356 59.4755C53.1913 57.8494 51.9461 55.8411 51.5839 55.2274C51.2224 54.6131 51.5809 54.3133 51.8561 53.9759C52.5278 53.1515 53.2004 52.2872 53.4072 51.8781C53.6143 51.4688 53.5106 51.1106 53.3552 50.8037C53.2004 50.4969 51.9595 47.4783 51.4426 46.25C50.9385 45.0547 50.4274 45.2161 50.0463 45.1974C49.6848 45.1795 49.271 45.1759 48.8571 45.1759C48.4436 45.1759 47.7713 45.3292 47.2024 45.9435C46.6338 46.5575 45.031 48.0409 45.031 51.0595C45.031 54.0781 47.2544 56.9941 47.5645 57.4035C47.8747 57.8128 51.9399 64.0072 58.164 66.6633C59.6444 67.2957 60.8 67.6727 61.7014 67.9553C63.1879 68.4221 64.5402 68.3562 65.6095 68.1984C66.8017 68.0221 69.2802 66.7146 69.7977 65.2823C70.3146 63.8496 70.3146 62.622 70.1592 62.3659C70.0045 62.1102 69.5906 61.9569 68.9703 61.6497Z" fill="white"/>
</g>
<defs>
<filter id="filter0_d_90_927" x="0.70946" y="0.398669" width="113.67" height="112.67" filterUnits="userSpaceOnUse" color-interpolation-filters="sRGB">
<feFlood flood-opacity="0" result="BackgroundImageFix"/>
<feColorMatrix in="SourceAlpha" type="matrix" values="0 0 0 0 0 0 0 0 0 0 0 0 0 0 0 0 0 0 127 0" result="hardAlpha"/>
<feOffset/>
<feGaussianBlur stdDeviation="6.91761"/>
<feComposite in2="hardAlpha" operator="out"/>
<feColorMatrix type="matrix" values="0 0 0 0 0.281452 0 0 0 0 0.6625 0 0 0 0 0.102135 0 0 0 0.45 0"/>
<feBlend mode="normal" in2="BackgroundImageFix" result="effect1_dropShadow_90_927"/>
<feBlend mode="normal" in="SourceGraphic" in2="effect1_dropShadow_90_927" result="shape"/>
</filter>
</defs>
</svg>
